# Blender v2.79 (sub 0) OBJ File: ''
# www.blender.org
o Sphere
v 0.659874 1.707137 -0.053764
v 0.659874 1.382714 -0.270537
v 0.659874 0.617347 -0.270537
v 0.659874 0.076151 0.270659
v 0.806321 1.923910 0.299789
v 0.930472 1.707137 0.000061
v 1.013427 1.382714 -0.200211
v 1.042557 1.000030 -0.270537
v 1.013427 0.617347 -0.200211
v 0.930472 0.292924 0.000061
v 0.806321 0.076151 0.299789
v 0.930472 1.923910 0.382745
v 1.159874 1.707137 0.153343
v 1.313155 1.382714 0.000061
v 1.366981 1.000030 -0.053764
v 1.313155 0.617347 0.000061
v 1.159874 0.292924 0.153343
v 0.930472 0.076151 0.382745
v 1.013427 1.923910 0.506896
v 1.313155 1.707137 0.382745
v 1.513427 1.382714 0.299789
v 1.583753 1.000030 0.270659
v 1.513427 0.617347 0.299789
v 1.313155 0.292924 0.382745
v 1.013427 0.076151 0.506896
v 1.042557 1.923910 0.653343
v 1.366981 1.707137 0.653343
v 1.583753 1.382714 0.653343
v 1.659874 1.000030 0.653343
v 1.583753 0.617347 0.653343
v 1.366981 0.292924 0.653343
v 1.042557 0.076151 0.653343
v 1.013427 1.923910 0.799789
v 1.313155 1.707137 0.923941
v 1.513427 1.382714 1.006896
v 1.583753 1.000030 1.036026
v 1.513427 0.617347 1.006896
v 1.313155 0.292924 0.923941
v 1.013427 0.076151 0.799789
v 0.930472 1.923910 0.923941
v 1.159874 1.707137 1.153343
v 1.313155 1.382714 1.306624
v 1.366980 1.000030 1.360449
v 1.313155 0.617347 1.306624
v 1.159874 0.292924 1.153343
v 0.930472 0.076151 0.923941
v 0.806320 1.923910 1.006896
v 0.930472 1.707137 1.306624
v 1.013427 1.382714 1.506896
v 1.042557 1.000030 1.577222
v 1.013427 0.617347 1.506896
v 0.930472 0.292924 1.306624
v 0.806320 0.076151 1.006896
v 0.659874 1.923910 1.036026
v 0.659874 1.707137 1.360449
v 0.659874 1.382714 1.577222
v 0.659874 1.000030 1.653342
v 0.659874 0.617347 1.577222
v 0.659874 0.292924 1.360449
v 0.659874 0.076151 1.036026
v 0.513427 1.923910 1.006896
v 0.389276 1.707137 1.306624
v 0.306320 1.382714 1.506896
v 0.277190 1.000030 1.577222
v 0.306320 0.617347 1.506896
v 0.389276 0.292924 1.306624
v 0.513427 0.076151 1.006896
v 0.389276 1.923910 0.923941
v 0.159874 1.707137 1.153342
v 0.006592 1.382714 1.306624
v -0.047233 1.000030 1.360449
v 0.006592 0.617347 1.306624
v 0.159874 0.292924 1.153342
v 0.389276 0.076151 0.923941
v 0.306321 1.923910 0.799789
v 0.006593 1.707137 0.923940
v -0.193679 1.382714 1.006896
v -0.264005 1.000030 1.036026
v -0.193679 0.617347 1.006896
v 0.006593 0.292924 0.923940
v 0.306321 0.076151 0.799789
v 0.277191 1.923910 0.653343
v -0.047233 1.707137 0.653342
v -0.264005 1.382714 0.653342
v -0.340126 1.000030 0.653342
v -0.264005 0.617347 0.653342
v -0.047233 0.292924 0.653342
v 0.277191 0.076151 0.653342
v 0.306321 1.923910 0.506896
v 0.006593 1.707137 0.382744
v -0.193679 1.382714 0.299789
v -0.264005 1.000030 0.270659
v -0.193679 0.617347 0.299789
v 0.006593 0.292924 0.382744
v 0.306321 0.076151 0.506896
v 0.389276 1.923910 0.382745
v 0.159874 1.707137 0.153343
v 0.006593 1.382714 0.000061
v -0.047232 1.000030 -0.053764
v 0.006593 0.617347 0.000061
v 0.159874 0.292924 0.153343
v 0.389276 0.076151 0.382745
v 0.513427 1.923910 0.299789
v 0.389276 1.707137 0.000061
v 0.306321 1.382714 -0.200210
v 0.277191 1.000030 -0.270537
v 0.306321 0.617347 -0.200210
v 0.389276 0.292924 0.000061
v 0.513428 0.076151 0.299789
v 0.659874 2.000031 0.653343
v 0.659874 1.923910 0.270659
v 0.659875 1.000030 -0.346657
v 0.659874 0.292924 -0.053764
v 0.659874 0.000030 0.653343
vt 0.750000 0.250000
vt 0.687500 0.125000
vt 0.750000 0.125000
vt 0.750000 0.500000
vt 0.687500 0.375000
vt 0.750000 0.375000
vt 0.750000 0.750000
vt 0.687500 0.625000
vt 0.750000 0.625000
vt 0.750000 0.875000
vt 0.718750 1.000000
vt 0.687500 0.875000
vt 0.718750 0.000000
vt 0.687500 0.250000
vt 0.687500 0.500000
vt 0.687500 0.750000
vt 0.625000 0.625000
vt 0.656250 1.000000
vt 0.625000 0.875000
vt 0.656250 0.000000
vt 0.625000 0.125000
vt 0.625000 0.250000
vt 0.625000 0.500000
vt 0.625000 0.750000
vt 0.625000 0.375000
vt 0.593750 0.000000
vt 0.562500 0.125000
vt 0.562500 0.250000
vt 0.562500 0.625000
vt 0.562500 0.500000
vt 0.562500 0.875000
vt 0.562500 0.750000
vt 0.562500 0.375000
vt 0.593750 1.000000
vt 0.500000 0.875000
vt 0.500000 0.750000
vt 0.500000 0.250000
vt 0.500000 0.125000
vt 0.500000 0.375000
vt 0.500000 0.625000
vt 0.531250 1.000000
vt 0.531250 0.000000
vt 0.500000 0.500000
vt 0.437500 0.125000
vt 0.437500 0.375000
vt 0.437500 0.750000
vt 0.437500 0.625000
vt 0.468750 1.000000
vt 0.437500 0.875000
vt 0.468750 0.000000
vt 0.437500 0.250000
vt 0.437500 0.500000
vt 0.406250 1.000000
vt 0.375000 0.875000
vt 0.406250 0.000000
vt 0.375000 0.125000
vt 0.375000 0.250000
vt 0.375000 0.500000
vt 0.375000 0.750000
vt 0.375000 0.375000
vt 0.375000 0.625000
vt 0.312500 0.250000
vt 0.312500 0.625000
vt 0.312500 0.500000
vt 0.312500 0.875000
vt 0.312500 0.750000
vt 0.312500 0.125000
vt 0.312500 0.375000
vt 0.343750 1.000000
vt 0.343750 0.000000
vt 0.250000 0.250000
vt 0.250000 0.125000
vt 0.250000 0.375000
vt 0.250000 0.625000
vt 0.281250 1.000000
vt 0.250000 0.875000
vt 0.281250 0.000000
vt 0.250000 0.500000
vt 0.250000 0.750000
vt 0.187500 0.375000
vt 0.187500 0.625000
vt 0.218750 1.000000
vt 0.187500 0.875000
vt 0.218750 0.000000
vt 0.187500 0.125000
vt 0.187500 0.250000
vt 0.187500 0.500000
vt 0.187500 0.750000
vt 0.156250 0.000000
vt 0.125000 0.125000
vt 0.125000 0.375000
vt 0.125000 0.250000
vt 0.125000 0.625000
vt 0.125000 0.500000
vt 0.125000 0.750000
vt 0.156250 1.000000
vt 0.125000 0.875000
vt 0.062500 0.500000
vt 0.062500 0.875000
vt 0.062500 0.750000
vt 0.062500 0.125000
vt 0.062500 0.375000
vt 0.062500 0.625000
vt 0.093750 1.000000
vt 0.093750 0.000000
vt 0.062500 0.250000
vt 0.000000 0.250000
vt 0.000000 0.125000
vt 0.000000 0.375000
vt 0.000000 0.625000
vt 0.031250 1.000000
vt 0.000000 0.875000
vt 0.031250 0.000000
vt 0.000000 0.500000
vt 0.000000 0.750000
vt 1.000000 0.750000
vt 0.937500 0.625000
vt 1.000000 0.625000
vt 1.000000 0.875000
vt 0.968750 1.000000
vt 0.937500 0.875000
vt 0.968750 0.000000
vt 1.000000 0.125000
vt 0.937500 0.125000
vt 1.000000 0.250000
vt 0.937500 0.375000
vt 0.937500 0.250000
vt 1.000000 0.500000
vt 0.937500 0.500000
vt 0.937500 0.750000
vt 1.000000 0.375000
vt 0.906250 0.000000
vt 0.875000 0.125000
vt 0.875000 0.250000
vt 0.875000 0.625000
vt 0.875000 0.500000
vt 0.875000 0.875000
vt 0.875000 0.750000
vt 0.875000 0.375000
vt 0.906250 1.000000
vt 0.812500 0.875000
vt 0.812500 0.750000
vt 0.812500 0.125000
vt 0.812500 0.375000
vt 0.812500 0.625000
vt 0.843750 1.000000
vt 0.843750 0.000000
vt 0.812500 0.250000
vt 0.812500 0.500000
vt 0.781250 1.000000
vt 0.781250 0.000000
vn 0.1098 -0.8264 -0.5522
vn 0.1915 -0.1915 -0.9626
vn 0.1632 0.5481 -0.8203
vn 0.0388 0.9800 -0.1949
vn 0.0388 -0.9800 -0.1949
vn 0.1632 -0.5481 -0.8203
vn 0.1915 0.1915 -0.9626
vn 0.1098 0.8264 -0.5522
vn 0.4647 0.5481 -0.6954
vn 0.1104 0.9800 -0.1653
vn 0.1104 -0.9800 -0.1653
vn 0.4647 -0.5481 -0.6954
vn 0.5453 0.1915 -0.8161
vn 0.3128 0.8264 -0.4681
vn 0.3128 -0.8264 -0.4681
vn 0.5453 -0.1915 -0.8161
vn 0.1653 -0.9800 -0.1104
vn 0.6954 -0.5481 -0.4647
vn 0.8161 0.1915 -0.5453
vn 0.4681 0.8264 -0.3128
vn 0.4681 -0.8264 -0.3128
vn 0.8161 -0.1915 -0.5453
vn 0.6954 0.5481 -0.4647
vn 0.1653 0.9800 -0.1104
vn 0.5522 0.8264 -0.1098
vn 0.5522 -0.8264 -0.1098
vn 0.9626 -0.1915 -0.1915
vn 0.8203 0.5481 -0.1632
vn 0.1949 0.9800 -0.0388
vn 0.1949 -0.9800 -0.0388
vn 0.8203 -0.5481 -0.1632
vn 0.9626 0.1915 -0.1915
vn 0.5522 -0.8264 0.1098
vn 0.9626 -0.1915 0.1915
vn 0.8203 0.5481 0.1632
vn 0.1949 0.9800 0.0388
vn 0.1949 -0.9800 0.0388
vn 0.8203 -0.5481 0.1632
vn 0.9626 0.1915 0.1915
vn 0.5522 0.8264 0.1098
vn 0.1653 0.9800 0.1104
vn 0.1653 -0.9800 0.1104
vn 0.6954 -0.5481 0.4647
vn 0.8161 0.1915 0.5453
vn 0.4681 0.8264 0.3128
vn 0.4681 -0.8264 0.3128
vn 0.8161 -0.1915 0.5453
vn 0.6954 0.5481 0.4647
vn 0.4647 -0.5481 0.6954
vn 0.5453 0.1915 0.8161
vn 0.3128 0.8264 0.4681
vn 0.3128 -0.8264 0.4681
vn 0.5453 -0.1915 0.8161
vn 0.4647 0.5481 0.6954
vn 0.1104 0.9800 0.1653
vn 0.1104 -0.9800 0.1653
vn 0.1098 -0.8264 0.5522
vn 0.1915 -0.1915 0.9626
vn 0.1632 0.5481 0.8203
vn 0.0388 0.9800 0.1949
vn 0.0388 -0.9800 0.1949
vn 0.1632 -0.5481 0.8203
vn 0.1915 0.1915 0.9626
vn 0.1098 0.8264 0.5522
vn -0.1915 -0.1915 0.9626
vn -0.1632 0.5481 0.8203
vn -0.0388 0.9800 0.1949
vn -0.0388 -0.9800 0.1949
vn -0.1632 -0.5481 0.8203
vn -0.1915 0.1915 0.9626
vn -0.1098 0.8264 0.5522
vn -0.1098 -0.8264 0.5522
vn -0.1104 -0.9800 0.1653
vn -0.4647 -0.5481 0.6954
vn -0.5453 0.1915 0.8161
vn -0.3128 0.8264 0.4681
vn -0.3128 -0.8264 0.4681
vn -0.5453 -0.1915 0.8161
vn -0.4647 0.5481 0.6954
vn -0.1104 0.9800 0.1653
vn -0.8161 0.1915 0.5453
vn -0.4681 0.8264 0.3128
vn -0.4681 -0.8264 0.3128
vn -0.8161 -0.1915 0.5453
vn -0.6954 0.5481 0.4647
vn -0.1653 0.9800 0.1104
vn -0.1653 -0.9800 0.1104
vn -0.6954 -0.5481 0.4647
vn -0.5522 -0.8264 0.1098
vn -0.9626 -0.1915 0.1915
vn -0.8203 0.5481 0.1632
vn -0.1949 0.9800 0.0388
vn -0.1949 -0.9800 0.0388
vn -0.8203 -0.5481 0.1632
vn -0.9626 0.1915 0.1915
vn -0.5522 0.8264 0.1098
vn -0.8203 0.5481 -0.1632
vn -0.1949 0.9800 -0.0388
vn -0.1949 -0.9800 -0.0388
vn -0.8203 -0.5481 -0.1632
vn -0.9626 0.1915 -0.1915
vn -0.5522 0.8264 -0.1098
vn -0.5522 -0.8264 -0.1098
vn -0.9626 -0.1915 -0.1915
vn -0.1653 -0.9800 -0.1104
vn -0.6954 -0.5481 -0.4647
vn -0.8161 0.1915 -0.5453
vn -0.4681 0.8264 -0.3128
vn -0.4681 -0.8264 -0.3128
vn -0.8161 -0.1915 -0.5453
vn -0.6954 0.5481 -0.4647
vn -0.1653 0.9800 -0.1104
vn -0.3128 0.8264 -0.4681
vn -0.3128 -0.8264 -0.4681
vn -0.5453 -0.1915 -0.8161
vn -0.4647 0.5481 -0.6954
vn -0.1104 0.9800 -0.1653
vn -0.1104 -0.9800 -0.1653
vn -0.4647 -0.5481 -0.6954
vn -0.5453 0.1915 -0.8161
vn -0.1098 -0.8264 -0.5522
vn -0.1915 -0.1915 -0.9626
vn -0.1632 0.5481 -0.8203
vn -0.0388 0.9800 -0.1949
vn -0.0388 -0.9800 -0.1949
vn -0.1632 -0.5481 -0.8203
vn -0.1915 0.1915 -0.9626
vn -0.1098 0.8264 -0.5522
s off
f 113/1/1 11/2/1 4/3/1
f 112/4/2 9/5/2 3/6/2
f 1/7/3 7/8/3 2/9/3
f 111/10/4 110/11/4 5/12/4
f 114/13/5 4/3/5 11/2/5
f 113/1/6 9/5/6 10/14/6
f 112/4/7 7/8/7 8/15/7
f 111/10/8 6/16/8 1/7/8
f 6/16/9 14/17/9 7/8/9
f 5/12/10 110/18/10 12/19/10
f 114/20/11 11/2/11 18/21/11
f 9/5/12 17/22/12 10/14/12
f 7/8/13 15/23/13 8/15/13
f 5/12/14 13/24/14 6/16/14
f 10/14/15 18/21/15 11/2/15
f 8/15/16 16/25/16 9/5/16
f 114/26/17 18/21/17 25/27/17
f 16/25/18 24/28/18 17/22/18
f 15/23/19 21/29/19 22/30/19
f 13/24/20 19/31/20 20/32/20
f 18/21/21 24/28/21 25/27/21
f 15/23/22 23/33/22 16/25/22
f 13/24/23 21/29/23 14/17/23
f 12/19/24 110/34/24 19/31/24
f 20/32/25 26/35/25 27/36/25
f 25/27/26 31/37/26 32/38/26
f 22/30/27 30/39/27 23/33/27
f 20/32/28 28/40/28 21/29/28
f 19/31/29 110/41/29 26/35/29
f 114/42/30 25/27/30 32/38/30
f 23/33/31 31/37/31 24/28/31
f 21/29/32 29/43/32 22/30/32
f 31/37/33 39/44/33 32/38/33
f 29/43/34 37/45/34 30/39/34
f 28/40/35 34/46/35 35/47/35
f 26/35/36 110/48/36 33/49/36
f 114/50/37 32/38/37 39/44/37
f 30/39/38 38/51/38 31/37/38
f 28/40/39 36/52/39 29/43/39
f 27/36/40 33/49/40 34/46/40
f 33/49/41 110/53/41 40/54/41
f 114/55/42 39/44/42 46/56/42
f 37/45/43 45/57/43 38/51/43
f 35/47/44 43/58/44 36/52/44
f 34/46/45 40/54/45 41/59/45
f 38/51/46 46/56/46 39/44/46
f 36/52/47 44/60/47 37/45/47
f 34/46/48 42/61/48 35/47/48
f 44/60/49 52/62/49 45/57/49
f 43/58/50 49/63/50 50/64/50
f 41/59/51 47/65/51 48/66/51
f 46/56/52 52/62/52 53/67/52
f 43/58/53 51/68/53 44/60/53
f 41/59/54 49/63/54 42/61/54
f 40/54/55 110/69/55 47/65/55
f 114/70/56 46/56/56 53/67/56
f 53/67/57 59/71/57 60/72/57
f 50/64/58 58/73/58 51/68/58
f 48/66/59 56/74/59 49/63/59
f 47/65/60 110/75/60 54/76/60
f 114/77/61 53/67/61 60/72/61
f 51/68/62 59/71/62 52/62/62
f 49/63/63 57/78/63 50/64/63
f 48/66/64 54/76/64 55/79/64
f 57/78/65 65/80/65 58/73/65
f 55/79/66 63/81/66 56/74/66
f 54/76/67 110/82/67 61/83/67
f 114/84/68 60/72/68 67/85/68
f 58/73/69 66/86/69 59/71/69
f 56/74/70 64/87/70 57/78/70
f 55/79/71 61/83/71 62/88/71
f 60/72/72 66/86/72 67/85/72
f 114/89/73 67/85/73 74/90/73
f 66/86/74 72/91/74 73/92/74
f 64/87/75 70/93/75 71/94/75
f 61/83/76 69/95/76 62/88/76
f 66/86/77 74/90/77 67/85/77
f 64/87/78 72/91/78 65/80/78
f 62/88/79 70/93/79 63/81/79
f 61/83/80 110/96/80 68/97/80
f 70/93/81 78/98/81 71/94/81
f 69/95/82 75/99/82 76/100/82
f 73/92/83 81/101/83 74/90/83
f 71/94/84 79/102/84 72/91/84
f 70/93/85 76/100/85 77/103/85
f 68/97/86 110/104/86 75/99/86
f 114/105/87 74/90/87 81/101/87
f 72/91/88 80/106/88 73/92/88
f 81/101/89 87/107/89 88/108/89
f 78/98/90 86/109/90 79/102/90
f 76/100/91 84/110/91 77/103/91
f 75/99/92 110/111/92 82/112/92
f 114/113/93 81/101/93 88/108/93
f 80/106/94 86/109/94 87/107/94
f 77/103/95 85/114/95 78/98/95
f 76/100/96 82/112/96 83/115/96
f 83/116/97 91/117/97 84/118/97
f 82/119/98 110/120/98 89/121/98
f 114/122/99 88/123/99 95/124/99
f 87/125/100 93/126/100 94/127/100
f 85/128/101 91/117/101 92/129/101
f 83/116/102 89/121/102 90/130/102
f 87/125/103 95/124/103 88/123/103
f 85/128/104 93/126/104 86/131/104
f 114/132/105 95/124/105 102/133/105
f 93/126/106 101/134/106 94/127/106
f 92/129/107 98/135/107 99/136/107
f 90/130/108 96/137/108 97/138/108
f 94/127/109 102/133/109 95/124/109
f 92/129/110 100/139/110 93/126/110
f 90/130/111 98/135/111 91/117/111
f 89/121/112 110/140/112 96/137/112
f 97/138/113 103/141/113 104/142/113
f 101/134/114 109/143/114 102/133/114
f 99/136/115 107/144/115 100/139/115
f 97/138/116 105/145/116 98/135/116
f 96/137/117 110/146/117 103/141/117
f 114/147/118 102/133/118 109/143/118
f 100/139/119 108/148/119 101/134/119
f 98/135/120 106/149/120 99/136/120
f 108/148/121 4/3/121 109/143/121
f 106/149/122 3/6/122 107/144/122
f 105/145/123 1/7/123 2/9/123
f 103/141/124 110/150/124 111/10/124
f 114/151/125 109/143/125 4/3/125
f 108/148/126 3/6/126 113/1/126
f 106/149/127 2/9/127 112/4/127
f 103/141/128 1/7/128 104/142/128
f 113/1/1 10/14/1 11/2/1
f 112/4/2 8/15/2 9/5/2
f 1/7/3 6/16/3 7/8/3
f 113/1/6 3/6/6 9/5/6
f 112/4/7 2/9/7 7/8/7
f 111/10/8 5/12/8 6/16/8
f 6/16/9 13/24/9 14/17/9
f 9/5/12 16/25/12 17/22/12
f 7/8/13 14/17/13 15/23/13
f 5/12/14 12/19/14 13/24/14
f 10/14/15 17/22/15 18/21/15
f 8/15/16 15/23/16 16/25/16
f 16/25/18 23/33/18 24/28/18
f 15/23/19 14/17/19 21/29/19
f 13/24/20 12/19/20 19/31/20
f 18/21/21 17/22/21 24/28/21
f 15/23/22 22/30/22 23/33/22
f 13/24/23 20/32/23 21/29/23
f 20/32/25 19/31/25 26/35/25
f 25/27/26 24/28/26 31/37/26
f 22/30/27 29/43/27 30/39/27
f 20/32/28 27/36/28 28/40/28
f 23/33/31 30/39/31 31/37/31
f 21/29/32 28/40/32 29/43/32
f 31/37/33 38/51/33 39/44/33
f 29/43/34 36/52/34 37/45/34
f 28/40/35 27/36/35 34/46/35
f 30/39/38 37/45/38 38/51/38
f 28/40/39 35/47/39 36/52/39
f 27/36/40 26/35/40 33/49/40
f 37/45/43 44/60/43 45/57/43
f 35/47/44 42/61/44 43/58/44
f 34/46/45 33/49/45 40/54/45
f 38/51/46 45/57/46 46/56/46
f 36/52/47 43/58/47 44/60/47
f 34/46/48 41/59/48 42/61/48
f 44/60/49 51/68/49 52/62/49
f 43/58/50 42/61/50 49/63/50
f 41/59/51 40/54/51 47/65/51
f 46/56/52 45/57/52 52/62/52
f 43/58/53 50/64/53 51/68/53
f 41/59/54 48/66/54 49/63/54
f 53/67/57 52/62/57 59/71/57
f 50/64/58 57/78/58 58/73/58
f 48/66/59 55/79/59 56/74/59
f 51/68/62 58/73/62 59/71/62
f 49/63/63 56/74/63 57/78/63
f 48/66/64 47/65/64 54/76/64
f 57/78/65 64/87/65 65/80/65
f 55/79/66 62/88/66 63/81/66
f 58/73/69 65/80/69 66/86/69
f 56/74/70 63/81/70 64/87/70
f 55/79/71 54/76/71 61/83/71
f 60/72/72 59/71/72 66/86/72
f 66/86/74 65/80/74 72/91/74
f 64/87/75 63/81/75 70/93/75
f 61/83/76 68/97/76 69/95/76
f 66/86/77 73/92/77 74/90/77
f 64/87/78 71/94/78 72/91/78
f 62/88/79 69/95/79 70/93/79
f 70/93/81 77/103/81 78/98/81
f 69/95/82 68/97/82 75/99/82
f 73/92/83 80/106/83 81/101/83
f 71/94/84 78/98/84 79/102/84
f 70/93/85 69/95/85 76/100/85
f 72/91/88 79/102/88 80/106/88
f 81/101/89 80/106/89 87/107/89
f 78/98/90 85/114/90 86/109/90
f 76/100/91 83/115/91 84/110/91
f 80/106/94 79/102/94 86/109/94
f 77/103/95 84/110/95 85/114/95
f 76/100/96 75/99/96 82/112/96
f 83/116/97 90/130/97 91/117/97
f 87/125/100 86/131/100 93/126/100
f 85/128/101 84/118/101 91/117/101
f 83/116/102 82/119/102 89/121/102
f 87/125/103 94/127/103 95/124/103
f 85/128/104 92/129/104 93/126/104
f 93/126/106 100/139/106 101/134/106
f 92/129/107 91/117/107 98/135/107
f 90/130/108 89/121/108 96/137/108
f 94/127/109 101/134/109 102/133/109
f 92/129/110 99/136/110 100/139/110
f 90/130/111 97/138/111 98/135/111
f 97/138/113 96/137/113 103/141/113
f 101/134/114 108/148/114 109/143/114
f 99/136/115 106/149/115 107/144/115
f 97/138/116 104/142/116 105/145/116
f 100/139/119 107/144/119 108/148/119
f 98/135/120 105/145/120 106/149/120
f 108/148/121 113/1/121 4/3/121
f 106/149/122 112/4/122 3/6/122
f 105/145/123 104/142/123 1/7/123
f 108/148/126 107/144/126 3/6/126
f 106/149/127 105/145/127 2/9/127
f 103/141/128 111/10/128 1/7/128
